<svg xmlns="http://www.w3.org/2000/svg" width="90" height="90" viewBox="0 0 90 90" fill="none"><title>CDK Global</title><desc>CDK Global company logo</desc><path d="M42.3667 38.2002H39.236V47.4257H42.3667C44.0985 47.4257 44.9645 47.0261 45.6972 46.3266C46.5631 45.4607 47.0627 44.4283 47.0627 42.8629C47.0627 41.3975 46.6297 40.3317 45.8304 39.4658C45.0977 38.6665 44.2318 38.2002 42.3667 38.2002Z" fill="#000000"></path><path d="M43 0C19.3867 0 0.169586 19.2171 0.169586 42.8304C0.169586 66.4438 19.3867 85.6609 43 85.6609C66.6134 85.6609 85.8304 66.4438 85.8304 42.8304C85.8304 19.2171 66.6134 0 43 0ZM23.0502 51.7562C17.4217 51.7562 13.6915 47.7263 13.6915 42.8304C13.6915 37.9346 17.455 33.938 22.917 33.938C26.0144 33.938 29.1451 35.1369 31.3099 36.8355L28.6122 39.7663C27.0468 38.4674 25.0152 37.7347 23.4832 37.7347C20.3858 37.7347 18.3542 40.0661 18.3542 42.8637C18.3542 45.6614 20.4191 47.9927 23.6164 47.9927C25.5814 47.9927 27.613 46.827 29.1118 45.4615L31.8428 48.3258C29.8112 50.1243 26.7471 51.7562 23.0502 51.7562ZM49.3613 48.8254C47.8959 50.2575 45.7976 51.2233 42.4671 51.2233H34.7403V34.4375H42.4671C45.5978 34.4375 47.9292 35.3035 49.4945 36.9687C50.9266 38.5008 51.726 40.5324 51.726 42.8304C51.726 45.1285 50.9266 47.3266 49.3613 48.8254ZM67.6791 51.2233L61.9506 43.9961L59.919 45.9278V51.2233H55.3895V34.4375H59.919V40.7322L66.5468 34.4375H72.2419L65.1146 41.0986L73.2744 51.2233H67.6791Z" fill="#000000"></path><path d="M80.1684 80.3657L79.6689 81.2316H79.5023L79.0028 80.399V81.3981H78.6364V79.6663H78.9694L79.6022 80.732L80.235 79.6663H80.5681V81.3981H80.2017L80.1684 80.3657Z" fill="#ffffff"></path></svg>